<svg width="27" height="26" viewBox="0 0 27 26" fill="none" xmlns="http://www.w3.org/2000/svg">
<path d="M9.29998 23.8707C10.6764 23.8707 11.5941 22.8001 11.5941 21.4236C11.5941 20.0471 10.5235 18.9766 9.29998 18.9766C7.92351 18.9766 7.00586 20.0471 7.00586 21.4236C7.00586 22.8001 8.07645 23.8707 9.29998 23.8707ZM9.29998 22.3413C8.84115 22.3413 8.53527 22.0354 8.53527 21.4236C8.53527 20.9648 8.84115 20.506 9.29998 20.506C9.7588 20.506 10.0647 20.8119 10.0647 21.4236C10.2176 21.8824 9.7588 22.3413 9.29998 22.3413ZM18.1706 23.8707C19.547 23.8707 20.4647 22.8001 20.4647 21.4236C20.4647 20.0471 19.3941 18.9766 18.1706 18.9766C16.7941 18.9766 15.8764 20.0471 15.8764 21.4236C15.8764 22.8001 16.947 23.8707 18.1706 23.8707ZM18.1706 22.3413C17.7117 22.3413 17.4059 22.0354 17.4059 21.4236C17.4059 20.9648 17.7117 20.506 18.1706 20.506C18.6294 20.506 18.9353 20.8119 18.9353 21.4236C19.0882 21.8824 18.6294 22.3413 18.1706 22.3413Z" fill="#BDBDBD"/>
<path d="M1.5 3.52941H2.72353C3.18235 3.52941 3.79412 3.98823 3.79412 4.44706L6.7 18.3647C7.00588 19.5882 8.07647 20.5059 9.29999 20.5059H21.0765V18.9765H9.29999C8.84117 18.9765 8.38235 18.5176 8.22941 18.0588L5.32353 4.14118C5.01764 2.91765 3.94706 2 2.72353 2H1.5V3.52941Z" fill="#BDBDBD"/>
<path d="M7.15902 14.9983V16.5277H21.6884L24.9002 10.2571C25.9708 8.26889 24.7473 6.43359 22.4531 6.43359H5.32373V7.963H22.4531C23.5237 7.963 23.9826 8.57477 23.5237 9.64536L20.7708 14.9983H7.15902Z" fill="#BDBDBD"/>
</svg>
