<svg width="25" height="24" viewBox="0 0 25 24" fill="none" xmlns="http://www.w3.org/2000/svg">
<path d="M21.4999 8.01L14.9499 2.77C13.6699 1.75 11.6699 1.74 10.3999 2.76L3.84992 8.01C2.90992 8.76 2.33992 10.26 2.53992 11.44L3.79992 18.98C4.08992 20.67 5.65992 22 7.36992 22H17.9699C19.6599 22 21.2599 20.64 21.5499 18.97L22.8099 11.43C22.9899 10.26 22.4199 8.76 21.4999 8.01ZM13.17 20C13.17 20 13.17 20 13.17 20C13.1699 20 13.1681 20 12.67 20C12.3568 20 8.92236 20 7.31753 20C6.84085 20 6.43271 19.6635 6.33922 19.1961L5.5 15L4.6905 11.3573C4.56388 10.7875 4.6566 10.2548 5.08417 9.85749C6.8705 8.19746 12.1596 4 12.5 4C12.8343 4 18.2758 8.3224 20.0015 9.91766C20.3457 10.2358 20.4277 10.8255 20.326 11.2831L19.5 15L18.6608 19.1961C18.5673 19.6635 18.1569 20 17.6802 20L13.17 20Z" fill="#BDBDBD"/>
<path d="M10.7392 14.1961C10.6155 13.5773 11.0888 13 11.7198 13H13.2802C13.9112 13 14.3845 13.5773 14.2608 14.1961L13.6608 17.1961C13.5673 17.6635 13.1569 18 12.6802 18H12.3198C11.8431 18 11.4327 17.6635 11.3392 17.1961L10.7392 14.1961Z" fill="#BDBDBD"/>
</svg>
