<svg width="16" height="17" viewBox="0 0 16 17" fill="none" xmlns="http://www.w3.org/2000/svg">
<path fill-rule="evenodd" clip-rule="evenodd" d="M0 7.62881C0 11.834 3.42366 15.2576 7.62881 15.2576C11.834 15.2576 15.2576 11.834 15.2576 7.62881C15.2576 3.42366 11.834 0 7.62881 0C3.42366 0 0 3.42366 0 7.62881ZM1.11641 7.62881C1.11641 4.04141 4.03397 1.11641 7.62881 1.11641C11.2237 1.11641 14.1412 4.04141 14.1412 7.62881C14.1412 11.2162 11.2237 14.1412 7.62881 14.1412C4.03397 14.1412 1.11641 11.2162 1.11641 7.62881ZM15.0494 15.8383C15.161 15.9499 15.3024 16.002 15.4438 16.002C15.5852 16.002 15.7266 15.9499 15.8383 15.8383C16.0541 15.6224 16.0541 15.2652 15.8383 15.0494L14.3497 13.5608C14.1339 13.345 13.7766 13.345 13.5608 13.5608C13.345 13.7766 13.345 14.1339 13.5608 14.3497L15.0494 15.8383Z" fill="#4D4C4C"/>
</svg>
