<svg width="26" height="26" viewBox="0 0 26 26" fill="none" xmlns="http://www.w3.org/2000/svg">
<path d="M7.58645 14.8052C8.06504 14.8052 8.52402 14.6151 8.86243 14.2767C9.20085 13.9383 9.39096 13.4793 9.39096 13.0007C9.39096 12.5221 9.20085 12.0631 8.86243 11.7247C8.52402 11.3863 8.06504 11.1962 7.58645 11.1962C7.10787 11.1962 6.64888 11.3863 6.31047 11.7247C5.97206 12.0631 5.78194 12.5221 5.78194 13.0007C5.78194 13.4793 5.97206 13.9383 6.31047 14.2767C6.64888 14.6151 7.10787 14.8052 7.58645 14.8052ZM13 14.8052C13.4786 14.8052 13.9376 14.6151 14.276 14.2767C14.6144 13.9383 14.8045 13.4793 14.8045 13.0007C14.8045 12.5221 14.6144 12.0631 14.276 11.7247C13.9376 11.3863 13.4786 11.1962 13 11.1962C12.5214 11.1962 12.0624 11.3863 11.724 11.7247C11.3856 12.0631 11.1955 12.5221 11.1955 13.0007C11.1955 13.4793 11.3856 13.9383 11.724 14.2767C12.0624 14.6151 12.5214 14.8052 13 14.8052ZM20.218 13.0007C20.218 13.4793 20.0279 13.9383 19.6895 14.2767C19.3511 14.6151 18.8921 14.8052 18.4135 14.8052C17.9349 14.8052 17.476 14.6151 17.1375 14.2767C16.7991 13.9383 16.609 13.4793 16.609 13.0007C16.609 12.5221 16.7991 12.0631 17.1375 11.7247C17.476 11.3863 17.9349 11.1962 18.4135 11.1962C18.8921 11.1962 19.3511 11.3863 19.6895 11.7247C20.0279 12.0631 20.218 12.5221 20.218 13.0007ZM25.6316 13.0007C25.6316 19.977 19.9762 25.6323 13 25.6323C6.02375 25.6323 0.368408 19.977 0.368408 13.0007C0.368408 6.02448 6.02375 0.369141 13 0.369141C19.9762 0.369141 25.6316 6.02448 25.6316 13.0007ZM23.8271 13.0007C23.8271 7.02147 18.9792 2.17365 13 2.17365C7.02074 2.17365 2.17292 7.02147 2.17292 13.0007C2.17292 18.98 7.02074 23.8278 13 23.8278C18.9792 23.8278 23.8271 18.98 23.8271 13.0007Z" fill="white"/>
</svg>
