<svg width="23" height="22" viewBox="0 0 23 22" fill="none" xmlns="http://www.w3.org/2000/svg">
<path fill-rule="evenodd" clip-rule="evenodd" d="M2.25 11C2.25 5.89137 6.39137 1.75 11.5 1.75C16.6086 1.75 20.75 5.89137 20.75 11C20.75 13.2736 19.9297 15.3556 18.569 16.9662C18.2066 16.287 17.631 15.6773 16.8887 15.1778L16.8871 15.1767C15.3774 14.1666 13.4234 13.6851 11.5075 13.6851C9.59141 13.6851 7.6336 14.1666 6.11504 15.1753L6.11503 15.1753L6.1113 15.1778C5.369 15.6773 4.79336 16.287 4.43105 16.9663C3.07028 15.3556 2.25 13.2736 2.25 11ZM14.1525 19.8641C13.3122 20.1151 12.4219 20.25 11.5 20.25C10.5811 20.25 9.69343 20.116 8.85556 19.8665C7.63973 19.5038 6.52962 18.8966 5.57839 18.1001C5.74614 17.5359 6.17666 16.9423 6.94685 16.4236C8.1681 15.613 9.81947 15.1851 11.5075 15.1851C13.1963 15.1851 14.8419 15.6134 16.0521 16.4228C16.823 16.9418 17.2538 17.5357 17.4216 18.1001C16.4725 18.8949 15.3652 19.5011 14.1525 19.8641ZM9.45308 21.5554C4.495 20.5995 0.75 16.2371 0.75 11C0.75 5.06294 5.56294 0.25 11.5 0.25C17.4371 0.25 22.25 5.06294 22.25 11C22.25 16.2288 18.5169 20.5856 13.5706 21.5508C12.9009 21.6816 12.2087 21.7501 11.5 21.7501C10.7997 21.7501 10.1154 21.6832 9.45308 21.5554ZM11.5 5.97998C10.0957 5.97998 8.96997 7.1127 8.96997 8.50998C8.96997 9.85876 10.0236 10.9585 11.3586 11.0284C11.4506 11.0209 11.5487 11.0202 11.6439 11.0282C12.9732 10.9572 14.0212 9.86176 14.03 8.50786C14.0288 7.11305 12.8951 5.97998 11.5 5.97998ZM7.46997 8.50998C7.46997 6.28726 9.26427 4.47998 11.5 4.47998C13.7242 4.47998 15.53 6.28577 15.53 8.50998V8.51422H15.53C15.5177 10.6826 13.8122 12.4557 11.6455 12.5295C11.6015 12.531 11.5575 12.5287 11.5139 12.5224C11.5182 12.5231 11.5191 12.523 11.5163 12.5228C11.5137 12.5227 11.5094 12.5225 11.5037 12.5225C11.4914 12.5225 11.4801 12.5233 11.473 12.5242C11.4337 12.5291 11.394 12.5309 11.3544 12.5295C9.19158 12.4558 7.46997 10.6854 7.46997 8.50998Z" fill="#BDBDBD"/>
</svg>
